<svg width="310" height="347" viewBox="0 0 310 347" fill="none" xmlns="http://www.w3.org/2000/svg">
<rect x="8.5" y="8.5" width="293" height="294" rx="27.5" stroke="#3D73E7" stroke-width="17"/>
<path d="M108.367 276V228.904L68.376 143.644H100.45L112.224 174.094C114.119 179.101 115.946 183.973 117.705 188.71C119.464 193.311 121.224 198.183 122.983 203.326H123.795C125.69 198.183 127.517 193.311 129.276 188.71C131.171 183.973 133.065 179.101 134.96 174.094L146.937 143.644H178.199L138.208 228.904V276H108.367ZM228.916 278.436C220.254 278.436 211.593 276.812 202.932 273.564C194.27 270.316 186.624 265.579 179.993 259.354L197.045 238.851C201.781 242.911 207.059 246.227 212.879 248.798C218.698 251.369 224.314 252.655 229.728 252.655C242.043 252.655 248.201 248.392 248.201 239.866C248.201 235.671 246.441 232.626 242.923 230.731C239.539 228.701 234.938 226.468 229.119 224.032L211.864 216.724C205.097 214.017 198.939 209.754 193.391 203.935C187.977 197.98 185.271 190.199 185.271 180.59C185.271 169.628 189.669 160.358 198.466 152.779C207.262 145.065 218.563 141.208 232.367 141.208C239.945 141.208 247.524 142.697 255.103 145.674C262.681 148.651 269.313 152.982 274.997 158.666L259.772 177.545C255.441 174.162 251.11 171.59 246.78 169.831C242.449 167.936 237.645 166.989 232.367 166.989C227.224 166.989 223.096 168.072 219.984 170.237C217.006 172.267 215.518 175.177 215.518 178.966C215.518 183.026 217.412 186.071 221.202 188.101C225.126 190.131 229.931 192.296 235.615 194.597L252.667 201.499C260.651 204.747 267.012 209.213 271.749 214.897C276.485 220.581 278.854 228.092 278.854 237.43C278.854 248.392 274.455 258.001 265.659 266.256C256.997 274.376 244.75 278.436 228.916 278.436Z" fill="#3D73E7"/>
</svg>
